<mxfile host="app.diagrams.net" modified="2023-02-23T18:07:57.895Z" agent="5.0 (Macintosh; Intel Mac OS X 10_15_7) AppleWebKit/605.1.15 (KHTML, like Gecko) Version/16.2 Safari/605.1.15" etag="S9d2ZlkSDoyydxCqHsUM" version="20.8.23" type="github">
  <diagram name="Page-1" id="JhTyrb2tliJ7k7yrLccP">
    <mxGraphModel dx="1097" dy="784" grid="1" gridSize="10" guides="1" tooltips="1" connect="1" arrows="1" fold="1" page="1" pageScale="1" pageWidth="827" pageHeight="1169" math="0" shadow="0">
      <root>
        <mxCell id="0" />
        <mxCell id="1" parent="0" />
        <mxCell id="DRvdHRPMJ9aQ3b9X-56c-2" value="" style="rounded=1;whiteSpace=wrap;html=1;fillColor=#f5f5f5;strokeColor=#666666;fontColor=#333333;strokeWidth=4;" vertex="1" parent="1">
          <mxGeometry x="1040" y="200" width="988" height="1030" as="geometry" />
        </mxCell>
        <mxCell id="DRvdHRPMJ9aQ3b9X-56c-67" value="&lt;br&gt;&lt;b&gt;VLAN254: CONTROL NET&lt;/b&gt;&lt;br style=&quot;border-color: var(--border-color); font-weight: 700;&quot;&gt;&lt;span style=&quot;border-color: var(--border-color); font-weight: 700;&quot;&gt;Network: 171.25.167.0/24&lt;br&gt;GW:&amp;nbsp;171.25.167.33&lt;br&gt;&lt;/span&gt;" style="rounded=1;whiteSpace=wrap;html=1;fillColor=#a20025;strokeColor=#6F0000;verticalAlign=top;fontColor=#ffffff;" vertex="1" parent="1">
          <mxGeometry x="1100" y="570" width="210" height="390" as="geometry" />
        </mxCell>
        <mxCell id="DRvdHRPMJ9aQ3b9X-56c-63" value="&lt;br&gt;&lt;b&gt;VLAN3: CONTROL NET&lt;/b&gt;&lt;br style=&quot;border-color: var(--border-color); font-weight: 700;&quot;&gt;&lt;span style=&quot;border-color: var(--border-color); font-weight: 700;&quot;&gt;Network: 192.168.3.0/24&lt;/span&gt;" style="rounded=1;whiteSpace=wrap;html=1;fillColor=#f8cecc;strokeColor=#b85450;verticalAlign=top;" vertex="1" parent="1">
          <mxGeometry x="1370" y="262" width="270" height="276" as="geometry" />
        </mxCell>
        <mxCell id="DRvdHRPMJ9aQ3b9X-56c-59" value="&lt;b style=&quot;border-color: var(--border-color);&quot;&gt;&lt;br&gt;VLAN4: HOME NET&lt;br style=&quot;border-color: var(--border-color);&quot;&gt;&lt;/b&gt;WIRED/WIRELESS" style="rounded=1;whiteSpace=wrap;html=1;fillColor=#fff2cc;strokeColor=#d6b656;verticalAlign=top;" vertex="1" parent="1">
          <mxGeometry x="1680" y="262" width="219" height="276" as="geometry" />
        </mxCell>
        <mxCell id="DRvdHRPMJ9aQ3b9X-56c-1" value="" style="rounded=1;whiteSpace=wrap;html=1;fillColor=#f5f5f5;strokeColor=#666666;fontColor=#333333;strokeWidth=4;" vertex="1" parent="1">
          <mxGeometry x="270" y="990" width="200" height="220" as="geometry" />
        </mxCell>
        <mxCell id="DRvdHRPMJ9aQ3b9X-56c-3" value="" style="rounded=1;whiteSpace=wrap;html=1;fillColor=#f8cecc;strokeColor=#b85450;" vertex="1" parent="1">
          <mxGeometry x="1099.9999999999998" y="262" width="270" height="276" as="geometry" />
        </mxCell>
        <mxCell id="DRvdHRPMJ9aQ3b9X-56c-6" style="edgeStyle=orthogonalEdgeStyle;rounded=0;orthogonalLoop=1;jettySize=auto;html=1;fontColor=#000000;strokeColor=#FFCCE6;startArrow=classic;startFill=1;fillColor=#ffcccc;strokeWidth=2;" edge="1" parent="1" source="DRvdHRPMJ9aQ3b9X-56c-22" target="DRvdHRPMJ9aQ3b9X-56c-15">
          <mxGeometry relative="1" as="geometry">
            <Array as="points">
              <mxPoint x="840" y="665" />
            </Array>
          </mxGeometry>
        </mxCell>
        <mxCell id="DRvdHRPMJ9aQ3b9X-56c-7" style="edgeStyle=orthogonalEdgeStyle;rounded=0;orthogonalLoop=1;jettySize=auto;html=1;exitX=0;exitY=0.5;exitDx=0;exitDy=0;exitPerimeter=0;fontColor=#000000;strokeColor=#9673a6;startArrow=classic;startFill=1;fillColor=#e1d5e7;strokeWidth=2;" edge="1" parent="1" source="DRvdHRPMJ9aQ3b9X-56c-5" target="DRvdHRPMJ9aQ3b9X-56c-1">
          <mxGeometry relative="1" as="geometry">
            <mxPoint x="595.5" y="594" as="sourcePoint" />
            <mxPoint x="481" y="594" as="targetPoint" />
            <Array as="points">
              <mxPoint x="380" y="826" />
            </Array>
          </mxGeometry>
        </mxCell>
        <mxCell id="DRvdHRPMJ9aQ3b9X-56c-8" style="edgeStyle=orthogonalEdgeStyle;rounded=0;orthogonalLoop=1;jettySize=auto;html=1;fontColor=#000000;strokeColor=#9673a6;startArrow=classic;startFill=1;fillColor=#e1d5e7;strokeWidth=2;" edge="1" parent="1" source="DRvdHRPMJ9aQ3b9X-56c-5" target="DRvdHRPMJ9aQ3b9X-56c-42">
          <mxGeometry relative="1" as="geometry">
            <mxPoint x="656.5" y="653.5" as="sourcePoint" />
            <mxPoint x="434" y="525" as="targetPoint" />
            <Array as="points">
              <mxPoint x="620" y="826" />
            </Array>
          </mxGeometry>
        </mxCell>
        <mxCell id="DRvdHRPMJ9aQ3b9X-56c-9" value="spb-pve1&#xa;20CPU/128G" style="shape=image;verticalLabelPosition=bottom;labelBackgroundColor=none;verticalAlign=top;aspect=fixed;imageAspect=0;image=https://whattheserver.com/wp-content/uploads/2018/08/proxmox-logo.png;" vertex="1" parent="1">
          <mxGeometry x="1415.5" y="401.31" width="60" height="60" as="geometry" />
        </mxCell>
        <mxCell id="DRvdHRPMJ9aQ3b9X-56c-10" value="spb-wlc&lt;br&gt;Cisco WLC 2504" style="verticalLabelPosition=bottom;html=1;fillColor=#fff2cc;strokeColor=#d6b656;verticalAlign=top;align=center;points=[[0.085,0.085,0],[0.915,0.085,0],[0.915,0.915,0],[0.085,0.915,0],[0.25,0,0],[0.5,0,0],[0.75,0,0],[1,0.25,0],[1,0.5,0],[1,0.75,0],[0.75,1,0],[0.5,1,0],[0.25,1,0],[0,0.75,0],[0,0.5,0],[0,0.25,0]];pointerEvents=1;shape=mxgraph.cisco_safe.compositeIcon;bgIcon=mxgraph.cisco_safe.architecture.generic_appliance;resIcon=mxgraph.cisco_safe.architecture.wireless_lan_controller;labelBackgroundColor=none;" vertex="1" parent="1">
          <mxGeometry x="1718.8100000000002" y="425" width="50" height="50" as="geometry" />
        </mxCell>
        <mxCell id="DRvdHRPMJ9aQ3b9X-56c-11" value="spb-ap1&lt;br&gt;Cisco AIR-3702I" style="verticalLabelPosition=bottom;html=1;fillColor=#fff2cc;strokeColor=#d6b656;verticalAlign=top;align=center;points=[[0.085,0.085,0],[0.915,0.085,0],[0.915,0.915,0],[0.085,0.915,0],[0.25,0,0],[0.5,0,0],[0.75,0,0],[1,0.25,0],[1,0.5,0],[1,0.75,0],[0.75,1,0],[0.5,1,0],[0.25,1,0],[0,0.75,0],[0,0.5,0],[0,0.25,0]];pointerEvents=1;shape=mxgraph.cisco_safe.compositeIcon;bgIcon=mxgraph.cisco_safe.architecture.generic_appliance;resIcon=mxgraph.cisco_safe.architecture.wireless_access_point;labelBackgroundColor=none;" vertex="1" parent="1">
          <mxGeometry x="1810.2" y="425" width="50" height="50" as="geometry" />
        </mxCell>
        <mxCell id="DRvdHRPMJ9aQ3b9X-56c-12" style="edgeStyle=orthogonalEdgeStyle;rounded=0;orthogonalLoop=1;jettySize=auto;html=1;fontColor=#000000;strokeColor=#A50040;startArrow=classic;startFill=1;fillColor=#d80073;strokeWidth=2;" edge="1" parent="1" source="DRvdHRPMJ9aQ3b9X-56c-51" target="DRvdHRPMJ9aQ3b9X-56c-47">
          <mxGeometry relative="1" as="geometry">
            <mxPoint x="124.02500000000009" y="690" as="sourcePoint" />
            <mxPoint x="-218.98000000000002" y="870.94" as="targetPoint" />
            <Array as="points">
              <mxPoint x="566" y="340" />
            </Array>
          </mxGeometry>
        </mxCell>
        <mxCell id="DRvdHRPMJ9aQ3b9X-56c-17" style="edgeStyle=orthogonalEdgeStyle;rounded=0;orthogonalLoop=1;jettySize=auto;html=1;fontColor=#000000;strokeColor=#A50040;startArrow=classic;startFill=1;fillColor=#d80073;strokeWidth=2;" edge="1" parent="1" source="DRvdHRPMJ9aQ3b9X-56c-15" target="DRvdHRPMJ9aQ3b9X-56c-47">
          <mxGeometry relative="1" as="geometry">
            <mxPoint x="356" y="457" as="sourcePoint" />
            <mxPoint x="-149.00000000000045" y="806.73" as="targetPoint" />
            <Array as="points">
              <mxPoint x="830" y="470" />
              <mxPoint x="830" y="470" />
            </Array>
          </mxGeometry>
        </mxCell>
        <mxCell id="DRvdHRPMJ9aQ3b9X-56c-19" value="spb-ap2.local&lt;br&gt;Cisco AIR-3702I" style="verticalLabelPosition=bottom;html=1;fillColor=#fff2cc;strokeColor=#d6b656;verticalAlign=top;align=center;points=[[0.085,0.085,0],[0.915,0.085,0],[0.915,0.915,0],[0.085,0.915,0],[0.25,0,0],[0.5,0,0],[0.75,0,0],[1,0.25,0],[1,0.5,0],[1,0.75,0],[0.75,1,0],[0.5,1,0],[0.25,1,0],[0,0.75,0],[0,0.5,0],[0,0.25,0]];pointerEvents=1;shape=mxgraph.cisco_safe.compositeIcon;bgIcon=mxgraph.cisco_safe.architecture.generic_appliance;resIcon=mxgraph.cisco_safe.architecture.wireless_access_point;labelBackgroundColor=none;" vertex="1" parent="1">
          <mxGeometry x="1810.2" y="322" width="50" height="50" as="geometry" />
        </mxCell>
        <mxCell id="DRvdHRPMJ9aQ3b9X-56c-20" value="spb-ap3.local&lt;br&gt;Cisco AIR-3702I" style="verticalLabelPosition=bottom;html=1;fillColor=#fff2cc;strokeColor=#d6b656;verticalAlign=top;align=center;points=[[0.085,0.085,0],[0.915,0.085,0],[0.915,0.915,0],[0.085,0.915,0],[0.25,0,0],[0.5,0,0],[0.75,0,0],[1,0.25,0],[1,0.5,0],[1,0.75,0],[0.75,1,0],[0.5,1,0],[0.25,1,0],[0,0.75,0],[0,0.5,0],[0,0.25,0]];pointerEvents=1;shape=mxgraph.cisco_safe.compositeIcon;bgIcon=mxgraph.cisco_safe.architecture.generic_appliance;resIcon=mxgraph.cisco_safe.architecture.wireless_access_point;labelBackgroundColor=none;" vertex="1" parent="1">
          <mxGeometry x="1718.8100000000002" y="322" width="50" height="50" as="geometry" />
        </mxCell>
        <mxCell id="DRvdHRPMJ9aQ3b9X-56c-21" value="" style="group;fontColor=#FFFFFF;" vertex="1" connectable="0" parent="1">
          <mxGeometry x="1140" y="630" width="128" height="128.5" as="geometry" />
        </mxCell>
        <mxCell id="DRvdHRPMJ9aQ3b9X-56c-22" value="&lt;font color=&quot;#ffffff&quot;&gt;&lt;span style=&quot;font-weight: 700&quot;&gt;spb-sw2.local (L2)&lt;/span&gt;&lt;br style=&quot;font-weight: 700&quot;&gt;&lt;b&gt;192.168.3.252&lt;/b&gt;&lt;/font&gt;" style="outlineConnect=0;dashed=0;verticalLabelPosition=bottom;verticalAlign=top;align=center;html=1;shape=mxgraph.aws3.router;fillColor=#F58536;gradientColor=none;" vertex="1" parent="DRvdHRPMJ9aQ3b9X-56c-21">
          <mxGeometry x="23" y="29" width="69" height="72" as="geometry" />
        </mxCell>
        <mxCell id="DRvdHRPMJ9aQ3b9X-56c-25" value="&lt;span style=&quot;font-weight: 700&quot;&gt;VLAN7: VPN CLIENTS (WG)&lt;/span&gt;&lt;br style=&quot;font-weight: 700&quot;&gt;&lt;span style=&quot;font-weight: 700&quot;&gt;Network: 192.168.7.0/24&lt;/span&gt;" style="rounded=1;whiteSpace=wrap;html=1;fillColor=#dae8fc;strokeColor=#6c8ebf;" vertex="1" parent="1">
          <mxGeometry x="1099.9999999999998" y="995" width="193" height="172" as="geometry" />
        </mxCell>
        <mxCell id="DRvdHRPMJ9aQ3b9X-56c-26" style="edgeStyle=orthogonalEdgeStyle;rounded=0;orthogonalLoop=1;jettySize=auto;html=1;fontColor=#000000;startArrow=classic;startFill=1;strokeWidth=2;strokeColor=#D4E1F5;" edge="1" parent="1" source="DRvdHRPMJ9aQ3b9X-56c-22" target="DRvdHRPMJ9aQ3b9X-56c-5">
          <mxGeometry relative="1" as="geometry">
            <mxPoint x="1489" y="603" as="sourcePoint" />
            <mxPoint x="1152.495" y="586.94" as="targetPoint" />
            <Array as="points" />
          </mxGeometry>
        </mxCell>
        <mxCell id="DRvdHRPMJ9aQ3b9X-56c-27" value="&lt;span style=&quot;font-weight: 700&quot;&gt;VLAN2:&amp;nbsp; DMZ + KUBE-SERV?&lt;/span&gt;&lt;br style=&quot;font-weight: 700&quot;&gt;&lt;span style=&quot;font-weight: 700&quot;&gt;Network: 192.168.2.0/24&lt;/span&gt;" style="rounded=1;whiteSpace=wrap;html=1;fillColor=#dae8fc;strokeColor=#6c8ebf;" vertex="1" parent="1">
          <mxGeometry x="1317.5" y="995" width="193" height="172" as="geometry" />
        </mxCell>
        <mxCell id="DRvdHRPMJ9aQ3b9X-56c-28" style="edgeStyle=orthogonalEdgeStyle;rounded=0;orthogonalLoop=1;jettySize=auto;html=1;fontColor=#000000;strokeColor=#82b366;startArrow=classic;startFill=1;fillColor=#d5e8d4;strokeWidth=2;" edge="1" parent="1" source="DRvdHRPMJ9aQ3b9X-56c-22" target="DRvdHRPMJ9aQ3b9X-56c-27">
          <mxGeometry relative="1" as="geometry">
            <mxPoint x="1289.5" y="717" as="sourcePoint" />
            <mxPoint x="1152.495" y="638.06" as="targetPoint" />
            <Array as="points">
              <mxPoint x="1420" y="695" />
            </Array>
          </mxGeometry>
        </mxCell>
        <mxCell id="DRvdHRPMJ9aQ3b9X-56c-29" style="edgeStyle=orthogonalEdgeStyle;rounded=0;orthogonalLoop=1;jettySize=auto;html=1;fontColor=#000000;strokeColor=#82b366;startArrow=classic;startFill=1;fillColor=#d5e8d4;exitX=1;exitY=0.5;exitDx=0;exitDy=0;exitPerimeter=0;strokeWidth=2;" edge="1" parent="1" source="DRvdHRPMJ9aQ3b9X-56c-22" target="DRvdHRPMJ9aQ3b9X-56c-59">
          <mxGeometry relative="1" as="geometry">
            <mxPoint x="1162.5" y="784" as="sourcePoint" />
            <mxPoint x="1645.5" y="721" as="targetPoint" />
            <Array as="points">
              <mxPoint x="1790" y="695" />
            </Array>
          </mxGeometry>
        </mxCell>
        <mxCell id="DRvdHRPMJ9aQ3b9X-56c-30" style="edgeStyle=orthogonalEdgeStyle;rounded=0;orthogonalLoop=1;jettySize=auto;html=1;fontColor=#000000;strokeColor=#82b366;startArrow=classic;startFill=1;fillColor=#d5e8d4;strokeWidth=2;" edge="1" parent="1" source="DRvdHRPMJ9aQ3b9X-56c-22" target="DRvdHRPMJ9aQ3b9X-56c-57">
          <mxGeometry relative="1" as="geometry">
            <mxPoint x="1152.495" y="809.56" as="sourcePoint" />
            <mxPoint x="1890.5" y="721" as="targetPoint" />
            <Array as="points">
              <mxPoint x="1847" y="695" />
            </Array>
          </mxGeometry>
        </mxCell>
        <mxCell id="DRvdHRPMJ9aQ3b9X-56c-31" style="edgeStyle=orthogonalEdgeStyle;rounded=0;orthogonalLoop=1;jettySize=auto;html=1;fontColor=#000000;strokeColor=#82b366;startArrow=none;startFill=1;fillColor=#d5e8d4;strokeWidth=2;" edge="1" parent="1" source="DRvdHRPMJ9aQ3b9X-56c-63" target="DRvdHRPMJ9aQ3b9X-56c-22">
          <mxGeometry relative="1" as="geometry">
            <mxPoint x="1128" y="820" as="sourcePoint" />
            <mxPoint x="1556" y="603" as="targetPoint" />
            <Array as="points">
              <mxPoint x="1508" y="570" />
              <mxPoint x="1508" y="570" />
            </Array>
          </mxGeometry>
        </mxCell>
        <mxCell id="DRvdHRPMJ9aQ3b9X-56c-32" value="spb-kube-m1&#xa;RP4b/4/120" style="shape=image;verticalLabelPosition=bottom;labelBackgroundColor=none;verticalAlign=top;aspect=fixed;imageAspect=0;image=https://i.pinimg.com/originals/6e/de/a8/6edea84dffc69d2c190c427be484143c.png;" vertex="1" parent="1">
          <mxGeometry x="1120" y="282" width="58.06" height="51.69" as="geometry" />
        </mxCell>
        <mxCell id="DRvdHRPMJ9aQ3b9X-56c-33" value="&lt;b&gt;ams-gw1.birukov.su&lt;br&gt;GCore Amsterdam&lt;br&gt;&lt;/b&gt;" style="outlineConnect=0;fontColor=#232F3E;gradientColor=none;strokeColor=#232F3E;fillColor=#ffffff;dashed=0;verticalLabelPosition=bottom;verticalAlign=top;align=center;html=1;fontSize=12;fontStyle=0;aspect=fixed;shape=mxgraph.aws4.resourceIcon;resIcon=mxgraph.aws4.vpn_gateway;" vertex="1" parent="1">
          <mxGeometry x="340" y="1012.6" width="60" height="60" as="geometry" />
        </mxCell>
        <mxCell id="DRvdHRPMJ9aQ3b9X-56c-34" style="edgeStyle=orthogonalEdgeStyle;rounded=0;orthogonalLoop=1;jettySize=auto;html=1;fontColor=#000000;strokeColor=#9673a6;startArrow=classic;startFill=1;fillColor=#e1d5e7;strokeWidth=2;" edge="1" parent="1" source="DRvdHRPMJ9aQ3b9X-56c-5" target="DRvdHRPMJ9aQ3b9X-56c-36">
          <mxGeometry relative="1" as="geometry">
            <mxPoint x="1103.505" y="586.94" as="sourcePoint" />
            <mxPoint x="880" y="470" as="targetPoint" />
            <Array as="points">
              <mxPoint x="860" y="826" />
            </Array>
          </mxGeometry>
        </mxCell>
        <mxCell id="DRvdHRPMJ9aQ3b9X-56c-46" value="" style="group" vertex="1" connectable="0" parent="1">
          <mxGeometry x="690" y="229.84" width="270" height="218" as="geometry" />
        </mxCell>
        <mxCell id="DRvdHRPMJ9aQ3b9X-56c-47" value="" style="rounded=1;whiteSpace=wrap;html=1;fillColor=#f5f5f5;strokeColor=#666666;fontColor=#333333;strokeWidth=4;" vertex="1" parent="DRvdHRPMJ9aQ3b9X-56c-46">
          <mxGeometry width="270" height="218" as="geometry" />
        </mxCell>
        <mxCell id="DRvdHRPMJ9aQ3b9X-56c-48" value="" style="shape=image;verticalLabelPosition=bottom;labelBackgroundColor=#ffffff;verticalAlign=top;aspect=fixed;imageAspect=0;image=http://he.net/images/helogo.gif;" vertex="1" parent="DRvdHRPMJ9aQ3b9X-56c-46">
          <mxGeometry x="8.25" y="102" width="253.5" height="62.13" as="geometry" />
        </mxCell>
        <mxCell id="DRvdHRPMJ9aQ3b9X-56c-49" value="&lt;b&gt;IPv6 Tunnel Broker&lt;/b&gt;" style="text;html=1;strokeColor=none;fillColor=none;align=center;verticalAlign=middle;whiteSpace=wrap;rounded=0;labelBackgroundColor=none;" vertex="1" parent="DRvdHRPMJ9aQ3b9X-56c-46">
          <mxGeometry x="61" y="40.57000000000005" width="148" height="19" as="geometry" />
        </mxCell>
        <mxCell id="DRvdHRPMJ9aQ3b9X-56c-53" value="spb-pve2&#xa;20CPU/256G" style="shape=image;verticalLabelPosition=bottom;labelBackgroundColor=none;verticalAlign=top;aspect=fixed;imageAspect=0;image=https://whattheserver.com/wp-content/uploads/2018/08/proxmox-logo.png;" vertex="1" parent="1">
          <mxGeometry x="1534" y="401.31" width="60" height="60" as="geometry" />
        </mxCell>
        <mxCell id="DRvdHRPMJ9aQ3b9X-56c-55" value="" style="edgeStyle=orthogonalEdgeStyle;rounded=0;orthogonalLoop=1;jettySize=auto;html=1;startArrow=classic;startFill=1;strokeWidth=2;fillColor=#008a00;strokeColor=#D4E1F5;" edge="1" parent="1" source="DRvdHRPMJ9aQ3b9X-56c-5" target="DRvdHRPMJ9aQ3b9X-56c-25">
          <mxGeometry relative="1" as="geometry">
            <Array as="points">
              <mxPoint x="1270" y="796" />
            </Array>
          </mxGeometry>
        </mxCell>
        <mxCell id="DRvdHRPMJ9aQ3b9X-56c-56" value="spb-cube-m2&#xa;RP4b/4/120" style="shape=image;verticalLabelPosition=bottom;labelBackgroundColor=none;verticalAlign=top;aspect=fixed;imageAspect=0;image=https://i.pinimg.com/originals/6e/de/a8/6edea84dffc69d2c190c427be484143c.png;" vertex="1" parent="1">
          <mxGeometry x="1200" y="282" width="58.06" height="51.69" as="geometry" />
        </mxCell>
        <mxCell id="DRvdHRPMJ9aQ3b9X-56c-57" value="&lt;span style=&quot;font-weight: 700&quot;&gt;VLAN5:&amp;nbsp; DMZ KUBE POD&lt;/span&gt;&lt;br style=&quot;font-weight: 700&quot;&gt;&lt;span style=&quot;font-weight: 700&quot;&gt;Network: 192.168.5.0/24&lt;/span&gt;" style="rounded=1;whiteSpace=wrap;html=1;fillColor=#dae8fc;strokeColor=#6c8ebf;" vertex="1" parent="1">
          <mxGeometry x="1750.5" y="995" width="193" height="172" as="geometry" />
        </mxCell>
        <mxCell id="DRvdHRPMJ9aQ3b9X-56c-58" value="spb-cube-w2&#xa;RP4b/8/250" style="shape=image;verticalLabelPosition=bottom;labelBackgroundColor=none;verticalAlign=top;aspect=fixed;imageAspect=0;image=https://i.pinimg.com/originals/6e/de/a8/6edea84dffc69d2c190c427be484143c.png;" vertex="1" parent="1">
          <mxGeometry x="1120" y="396.15" width="58.06" height="51.69" as="geometry" />
        </mxCell>
        <mxCell id="DRvdHRPMJ9aQ3b9X-56c-60" value="spb-cube-w3&#xa;RP4b/8/250&#xa;" style="shape=image;verticalLabelPosition=bottom;labelBackgroundColor=none;verticalAlign=top;aspect=fixed;imageAspect=0;image=https://i.pinimg.com/originals/6e/de/a8/6edea84dffc69d2c190c427be484143c.png;" vertex="1" parent="1">
          <mxGeometry x="1200" y="396.15" width="58.06" height="51.69" as="geometry" />
        </mxCell>
        <mxCell id="DRvdHRPMJ9aQ3b9X-56c-61" value="spb-cube-w4&#xa;RP4b/8/250&#xa;" style="shape=image;verticalLabelPosition=bottom;labelBackgroundColor=none;verticalAlign=top;aspect=fixed;imageAspect=0;image=https://i.pinimg.com/originals/6e/de/a8/6edea84dffc69d2c190c427be484143c.png;" vertex="1" parent="1">
          <mxGeometry x="1280" y="396.15" width="58.06" height="51.69" as="geometry" />
        </mxCell>
        <mxCell id="DRvdHRPMJ9aQ3b9X-56c-62" value="spb-cube-w1&#xa;RP4b/8/250&#xa;" style="shape=image;verticalLabelPosition=bottom;labelBackgroundColor=none;verticalAlign=top;aspect=fixed;imageAspect=0;image=https://i.pinimg.com/originals/6e/de/a8/6edea84dffc69d2c190c427be484143c.png;" vertex="1" parent="1">
          <mxGeometry x="1280" y="282" width="58.06" height="51.69" as="geometry" />
        </mxCell>
        <mxCell id="DRvdHRPMJ9aQ3b9X-56c-5" value="&lt;font color=&quot;#ffffff&quot;&gt;&lt;span style=&quot;font-weight: 700&quot;&gt;spb-gw1.birukov.su&lt;/span&gt;&lt;br style=&quot;font-weight: 700&quot;&gt;&lt;span style=&quot;font-weight: 700&quot;&gt;171.25.167.62&lt;/span&gt;&lt;br style=&quot;font-weight: 700&quot;&gt;&lt;span style=&quot;font-weight: 700&quot;&gt;192.168.3.251&lt;/span&gt;&lt;/font&gt;" style="outlineConnect=0;dashed=0;verticalLabelPosition=bottom;verticalAlign=top;align=center;html=1;shape=mxgraph.aws3.router;fillColor=#F58536;gradientColor=none;" vertex="1" parent="1">
          <mxGeometry x="1162.5" y="790" width="69" height="72" as="geometry" />
        </mxCell>
        <mxCell id="DRvdHRPMJ9aQ3b9X-56c-68" value="&lt;span style=&quot;font-weight: 700&quot;&gt;VLAN5:&amp;nbsp; DMZ KUBE POD&lt;/span&gt;&lt;br style=&quot;font-weight: 700&quot;&gt;&lt;span style=&quot;font-weight: 700&quot;&gt;Network: 192.168.5.0/24&lt;/span&gt;" style="rounded=1;whiteSpace=wrap;html=1;fillColor=#dae8fc;strokeColor=#6c8ebf;" vertex="1" parent="1">
          <mxGeometry x="1533.5" y="995" width="193" height="172" as="geometry" />
        </mxCell>
        <mxCell id="DRvdHRPMJ9aQ3b9X-56c-69" style="edgeStyle=orthogonalEdgeStyle;rounded=0;orthogonalLoop=1;jettySize=auto;html=1;fontColor=#000000;strokeColor=#82b366;startArrow=classic;startFill=1;fillColor=#d5e8d4;strokeWidth=2;" edge="1" parent="1" source="DRvdHRPMJ9aQ3b9X-56c-22" target="DRvdHRPMJ9aQ3b9X-56c-68">
          <mxGeometry relative="1" as="geometry">
            <mxPoint x="1242" y="705" as="sourcePoint" />
            <mxPoint x="1430" y="1005" as="targetPoint" />
            <Array as="points">
              <mxPoint x="1630" y="695" />
            </Array>
          </mxGeometry>
        </mxCell>
        <mxCell id="DRvdHRPMJ9aQ3b9X-56c-71" value="" style="group" vertex="1" connectable="0" parent="1">
          <mxGeometry x="507.65999999999997" y="990" width="205" height="220" as="geometry" />
        </mxCell>
        <mxCell id="DRvdHRPMJ9aQ3b9X-56c-42" value="" style="rounded=1;whiteSpace=wrap;html=1;fillColor=#f5f5f5;strokeColor=#666666;fontColor=#333333;strokeWidth=4;" vertex="1" parent="DRvdHRPMJ9aQ3b9X-56c-71">
          <mxGeometry x="5" width="200" height="220" as="geometry" />
        </mxCell>
        <mxCell id="DRvdHRPMJ9aQ3b9X-56c-43" value="Networks:&lt;br&gt;&lt;br&gt;eu-north-1: 192.168.64.0/20" style="text;html=1;strokeColor=none;fillColor=none;align=center;verticalAlign=middle;whiteSpace=wrap;rounded=0;fontColor=#000000;fontStyle=1" vertex="1" parent="DRvdHRPMJ9aQ3b9X-56c-71">
          <mxGeometry y="125.5" width="197" height="58" as="geometry" />
        </mxCell>
        <mxCell id="DRvdHRPMJ9aQ3b9X-56c-44" value="GCP-Network: 192.168.64.0/20" style="text;html=1;strokeColor=none;fillColor=none;align=center;verticalAlign=middle;whiteSpace=wrap;rounded=0;fontColor=#000000;fontStyle=1" vertex="1" parent="DRvdHRPMJ9aQ3b9X-56c-71">
          <mxGeometry x="5" y="94.5" width="197" height="31" as="geometry" />
        </mxCell>
        <mxCell id="DRvdHRPMJ9aQ3b9X-56c-45" value="" style="shape=image;verticalLabelPosition=bottom;labelBackgroundColor=#ffffff;verticalAlign=top;aspect=fixed;imageAspect=0;image=https://seeklogo.com/images/G/google-cloud-logo-ADE788217F-seeklogo.com.png;" vertex="1" parent="DRvdHRPMJ9aQ3b9X-56c-71">
          <mxGeometry x="79.75" y="32.72000000000003" width="50.5" height="40.57" as="geometry" />
        </mxCell>
        <mxCell id="DRvdHRPMJ9aQ3b9X-56c-72" value="" style="group" vertex="1" connectable="0" parent="1">
          <mxGeometry x="760" y="995" width="200" height="220" as="geometry" />
        </mxCell>
        <mxCell id="DRvdHRPMJ9aQ3b9X-56c-36" value="" style="rounded=1;whiteSpace=wrap;html=1;fillColor=#f5f5f5;strokeColor=#666666;fontColor=#333333;strokeWidth=4;" vertex="1" parent="DRvdHRPMJ9aQ3b9X-56c-72">
          <mxGeometry width="200" height="220" as="geometry" />
        </mxCell>
        <mxCell id="DRvdHRPMJ9aQ3b9X-56c-37" value="" style="outlineConnect=0;dashed=0;verticalLabelPosition=bottom;verticalAlign=top;align=center;html=1;shape=mxgraph.aws3.virtual_private_cloud;fillColor=#F58534;gradientColor=none;" vertex="1" parent="DRvdHRPMJ9aQ3b9X-56c-72">
          <mxGeometry x="99.65000000000009" y="33.50999999999999" width="42.69" height="29" as="geometry" />
        </mxCell>
        <mxCell id="DRvdHRPMJ9aQ3b9X-56c-38" value="" style="outlineConnect=0;dashed=0;verticalLabelPosition=bottom;verticalAlign=top;align=center;html=1;shape=mxgraph.aws3.vpc;fillColor=#F58536;gradientColor=none;" vertex="1" parent="DRvdHRPMJ9aQ3b9X-56c-72">
          <mxGeometry x="57.65000000000009" y="28.50999999999999" width="32.5" height="39" as="geometry" />
        </mxCell>
        <mxCell id="DRvdHRPMJ9aQ3b9X-56c-39" value="Networks:&lt;br&gt;&lt;br&gt;eu-north-1a: 192.168.48.0/24&lt;br&gt;eu-north-1b: 192.168.49.0/24&lt;br&gt;eu-north-1c: 192.168.50.0/24" style="text;html=1;strokeColor=none;fillColor=none;align=center;verticalAlign=middle;whiteSpace=wrap;rounded=0;fontColor=#000000;fontStyle=1" vertex="1" parent="DRvdHRPMJ9aQ3b9X-56c-72">
          <mxGeometry x="13.5" y="128" width="173" height="77" as="geometry" />
        </mxCell>
        <mxCell id="DRvdHRPMJ9aQ3b9X-56c-40" value="AWS-Network: 192.168.48.0/20" style="text;html=1;strokeColor=none;fillColor=none;align=center;verticalAlign=middle;whiteSpace=wrap;rounded=0;fontColor=#000000;fontStyle=1" vertex="1" parent="DRvdHRPMJ9aQ3b9X-56c-72">
          <mxGeometry x="1.5" y="89.5" width="197" height="31" as="geometry" />
        </mxCell>
        <mxCell id="DRvdHRPMJ9aQ3b9X-56c-73" value="Networks:&lt;br&gt;&lt;br&gt;local: 192.168.32.0/20" style="text;html=1;strokeColor=none;fillColor=none;align=center;verticalAlign=middle;whiteSpace=wrap;rounded=0;fontColor=#000000;fontStyle=1" vertex="1" parent="1">
          <mxGeometry x="272" y="1109" width="197" height="71" as="geometry" />
        </mxCell>
        <mxCell id="DRvdHRPMJ9aQ3b9X-56c-14" value="" style="group" vertex="1" connectable="0" parent="1">
          <mxGeometry x="708.42" y="495.25" width="233.16" height="134.75" as="geometry" />
        </mxCell>
        <mxCell id="DRvdHRPMJ9aQ3b9X-56c-15" value="" style="ellipse;shape=cloud;whiteSpace=wrap;html=1;fillColor=#ffe6cc;strokeColor=#d79b00;" vertex="1" parent="DRvdHRPMJ9aQ3b9X-56c-14">
          <mxGeometry width="233.16" height="134.75" as="geometry" />
        </mxCell>
        <mxCell id="DRvdHRPMJ9aQ3b9X-56c-16" value="IPv4 INTERNET" style="text;html=1;strokeColor=none;fillColor=none;align=center;verticalAlign=middle;whiteSpace=wrap;rounded=0;fontColor=#000000;fontStyle=1" vertex="1" parent="DRvdHRPMJ9aQ3b9X-56c-14">
          <mxGeometry x="81.2174" y="67.375" width="81.606" height="2.5265625" as="geometry" />
        </mxCell>
        <mxCell id="DRvdHRPMJ9aQ3b9X-56c-75" value="" style="group" vertex="1" connectable="0" parent="1">
          <mxGeometry x="350" y="280" width="233" height="107" as="geometry" />
        </mxCell>
        <mxCell id="DRvdHRPMJ9aQ3b9X-56c-51" value="" style="ellipse;shape=cloud;whiteSpace=wrap;html=1;fillColor=#ffe6cc;strokeColor=#d79b00;" vertex="1" parent="DRvdHRPMJ9aQ3b9X-56c-75">
          <mxGeometry width="233" height="107" as="geometry" />
        </mxCell>
        <mxCell id="DRvdHRPMJ9aQ3b9X-56c-52" value="IPv6 INTERNET" style="text;html=1;strokeColor=none;fillColor=none;align=center;verticalAlign=middle;whiteSpace=wrap;rounded=0;fontColor=#000000;fontStyle=1" vertex="1" parent="DRvdHRPMJ9aQ3b9X-56c-75">
          <mxGeometry x="75.72000000000003" y="35.75" width="81.55" height="35.5" as="geometry" />
        </mxCell>
      </root>
    </mxGraphModel>
  </diagram>
</mxfile>
